<svg xmlns="http://www.w3.org/2000/svg" width="9.493" height="12" viewBox="0 0 9.493 12">
  <path id="icons8-bold" d="M11.073,5a1.1,1.1,0,0,0-1.1,1.283v9.431A1.1,1.1,0,0,0,11.073,17h4.741a3.648,3.648,0,0,0,3.632-3.632,3.579,3.579,0,0,0-1.637-2.944,3.369,3.369,0,0,0,.686-1.95A3.493,3.493,0,0,0,15.02,5Zm1.1,2.211H15.02a1.263,1.263,0,0,1,0,2.526H12.336a1.105,1.105,0,0,0-.158.01Zm0,4.726.081.009H15.81a1.421,1.421,0,0,1,0,2.842H12.178Z" transform="translate(-9.953 -5)" fill="#535353" opacity="0.5"/>
</svg>
