<svg xmlns="http://www.w3.org/2000/svg" width="13" height="12" viewBox="0 0 13 12">
  <path id="icons8-bulleted-list" d="M4.854,10A.957.957,0,0,0,4,11.034a.957.957,0,0,0,.854,1.034.957.957,0,0,0,.854-1.034A.957.957,0,0,0,4.854,10Zm2.391.413a.5.5,0,0,0-.462.3.736.736,0,0,0,0,.636.5.5,0,0,0,.462.3h9.221a.5.5,0,0,0,.462-.3.736.736,0,0,0,0-.636.5.5,0,0,0-.462-.3ZM4.854,14.966A.957.957,0,0,0,4,16a.957.957,0,0,0,.854,1.034A.957.957,0,0,0,5.708,16,.957.957,0,0,0,4.854,14.966Zm2.391.413a.5.5,0,0,0-.462.3.736.736,0,0,0,0,.636.5.5,0,0,0,.462.3h9.221a.5.5,0,0,0,.462-.3.736.736,0,0,0,0-.636.5.5,0,0,0-.462-.3ZM4.854,19.931a1.054,1.054,0,0,0,0,2.069,1.054,1.054,0,0,0,0-2.069Zm2.391.413a.5.5,0,0,0-.462.3.736.736,0,0,0,0,.636.5.5,0,0,0,.462.3h9.221a.5.5,0,0,0,.462-.3.736.736,0,0,0,0-.636.5.5,0,0,0-.462-.3Z" transform="translate(-4 -10)" fill="#535353" opacity="0.5"/>
</svg>
