<svg xmlns="http://www.w3.org/2000/svg" width="14" height="14" viewBox="0 0 14 14">
  <path id="icons8-funnel" d="M6.972,6A.981.981,0,0,0,6,6.972v1.2a2.918,2.918,0,0,0,1.112,2.291l0,0,3.941,3.075v5.875a.583.583,0,0,0,.922.475L14.7,17.947a.583.583,0,0,0,.245-.475V13.542l3.941-3.075,0,0A2.918,2.918,0,0,0,20,8.174v-1.2A.981.981,0,0,0,19.028,6Zm.194,1.167H18.833V8.174a1.748,1.748,0,0,1-.667,1.374L14,12.8a.583.583,0,0,0-.225.46v3.915l-1.556,1.111V13.257A.583.583,0,0,0,12,12.8L7.834,9.548a1.748,1.748,0,0,1-.667-1.374Z" transform="translate(-6 -6)" fill="#091b29"/>
</svg>
