<svg xmlns="http://www.w3.org/2000/svg" width="13.092" height="12.001" viewBox="0 0 13.092 12.001">
  <path id="icons8-numbered-list_1_" data-name="icons8-numbered-list (1)" d="M7.378,5a.474.474,0,0,0-.136.024L6.3,5.339a.474.474,0,1,0,.3.9l.324-.108V8a.474.474,0,1,0,.947,0V5.473A.474.474,0,0,0,7.378,5Zm3.488,1.579a.474.474,0,1,0,0,.947H18.55a.474.474,0,1,0,0-.947ZM7.267,9.1a1.323,1.323,0,0,0-1.017.5,1.555,1.555,0,0,0-.258.475.474.474,0,1,0,.907.274.556.556,0,0,1,.091-.157.3.3,0,0,1,.278-.138c.13,0,.154.029.2.095a.527.527,0,0,1,.081.245.279.279,0,0,1-.108.249,1.923,1.923,0,0,1-.427.277,3.558,3.558,0,0,0-.618.366,1.091,1.091,0,0,0-.426.82.474.474,0,0,0,.474.474h1.9a.474.474,0,1,0,0-.947h-.7a1.943,1.943,0,0,0,.471-.319,1.322,1.322,0,0,0,.385-.92,1.341,1.341,0,0,0-.266-.807A1.218,1.218,0,0,0,7.267,9.1Zm3.6,1.579a.474.474,0,1,0,0,.947H18.55a.474.474,0,1,0,0-.947Zm-3.6,2.842a1.758,1.758,0,0,0-1.156.453.474.474,0,1,0,.667.672.739.739,0,0,1,.488-.178.4.4,0,0,1,.247.069c.038.03.036.037.036.059,0,.165-.026.153-.036.161a.278.278,0,0,1-.122.027.474.474,0,1,0,0,.947,1.162,1.162,0,0,1,.253.071c.085.044.063.025.063.032a.128.128,0,0,1-.062.134.482.482,0,0,1-.281.078,1.242,1.242,0,0,1-.627-.214.474.474,0,1,0-.586.744A2.062,2.062,0,0,0,7.365,17a1.386,1.386,0,0,0,.865-.28,1.136,1.136,0,0,0,.426-.88.892.892,0,0,0-.313-.652A1.232,1.232,0,0,0,8.5,14.6a1.04,1.04,0,0,0-.39-.8,1.328,1.328,0,0,0-.843-.274Zm3.6,1.263a.474.474,0,1,0,0,.947H18.55a.474.474,0,1,0,0-.947Z" transform="translate(-5.953 -5)" fill="#535353" opacity="0.5"/>
</svg>
