<svg xmlns="http://www.w3.org/2000/svg" width="12" height="12.002" viewBox="0 0 12 12.002">
  <path id="icons8-strikethrough" d="M13.812,7C11.735,7,9.5,7.939,9.5,10a2.056,2.056,0,0,0,.715,1.588h2.307c-1.2-.388-1.9-.809-1.9-1.588,0-1.536,2.085-1.941,3.188-1.941a4.844,4.844,0,0,1,2.993.918.588.588,0,0,0,.781-.042.508.508,0,0,0-.017-.736A6,6,0,0,0,13.812,7Zm-5.25,5.647a.53.53,0,1,0,0,1.059h7.225a2.109,2.109,0,0,1,1.587,1.941c0,.8-1.046,2.294-3.563,2.294a5.1,5.1,0,0,1-3.687-1.566.586.586,0,0,0-.79-.083.508.508,0,0,0-.089.743A6.276,6.276,0,0,0,13.812,19c3.2,0,4.688-2,4.688-3.353a2.656,2.656,0,0,0-.779-1.941h1.716a.53.53,0,1,0,0-1.059Z" transform="translate(-7.999 -6.998)" fill="#535353" opacity="0.5"/>
</svg>
